<svg width="16" height="17" viewBox="0 0 16 17" fill="none" xmlns="http://www.w3.org/2000/svg">
<path fill-rule="evenodd" clip-rule="evenodd" d="M1.66689 0.781291C1.27926 0.399643 0.658028 0.407316 0.279339 0.798428C-0.0993501 1.18954 -0.0920967 1.81599 0.29554 2.19763L6.69681 8.5L0.29554 14.8024C-0.0920967 15.184 -0.0993501 15.8105 0.279339 16.2016C0.658028 16.5927 1.27926 16.6004 1.66689 16.2187L8.10177 9.88325L14.3331 16.0183C14.7207 16.4 15.342 16.3923 15.7207 16.0012C16.0993 15.6101 16.0921 14.9836 15.7045 14.602L9.50673 8.5L15.7045 2.39803C16.0921 2.01639 16.0993 1.38994 15.7207 0.998829C15.342 0.607717 14.7207 0.600044 14.3331 0.981691L8.10177 7.11675L1.66689 0.781291Z" fill="#ABB6B7"/>
</svg>
